<svg xmlns="http://www.w3.org/2000/svg" width="1920" height="1080" viewBox="0 0 1920 1080"><rect width="100%" height="100%" fill="#000000"/><path fill="#FFF" d="M409.095 565.2h19.45q5.36 0 9-1.28 3.65-1.29 5.83-3.43 2.18-2.15 3.15-5.01.96-2.86.96-6.08 0-3.36-1.07-6.04t-3.36-4.57q-2.29-1.9-5.9-2.9t-8.69-1h-19.37zm16.37-73.5h-16.37v29.89h15.3q9.87 0 14.91-3.58 5.04-3.57 5.04-11.36 0-8.08-4.58-11.52-4.57-3.43-14.3-3.43m-35.61-14.87h35.61q10.15 0 17.38 1.93 7.22 1.93 11.83 5.51 4.61 3.57 6.76 8.65 2.14 5.07 2.14 11.44 0 3.64-1.07 6.97-1.07 3.32-3.33 6.22-2.25 2.9-5.72 5.26-3.46 2.35-8.25 4 21.3 4.79 21.3 23.02 0 6.58-2.5 12.16-2.5 5.57-7.29 9.61t-11.8 6.33-16.02 2.29h-39.04zm130.13 84.44V548.9q-7.65.36-12.87 1.33-5.22.96-8.36 2.46-3.15 1.5-4.51 3.51-1.35 2-1.35 4.36 0 4.64 2.75 6.65 2.75 2 7.18 2 5.44 0 9.41-1.97 3.96-1.96 7.75-5.97m-37.32-38.54-3.14-5.64q12.65-11.59 30.45-11.59 6.44 0 11.52 2.11 5.07 2.11 8.58 5.86 3.5 3.76 5.32 8.98 1.83 5.22 1.83 11.44v46.33h-8.01q-2.5 0-3.86-.75t-2.15-3.04l-1.57-5.29q-2.79 2.5-5.44 4.4-2.64 1.89-5.5 3.18t-6.11 1.96q-3.26.68-7.19.68-4.65 0-8.58-1.25t-6.79-3.75-4.44-6.22q-1.57-3.72-1.57-8.65 0-2.79.93-5.54.93-2.76 3.04-5.26t5.47-4.72 8.26-3.86 11.4-2.68q6.51-1.04 14.87-1.25v-4.29q0-7.37-3.14-10.91-3.15-3.54-9.08-3.54-4.29 0-7.12 1.01-2.82 1-4.97 2.25-2.14 1.25-3.89 2.25t-3.9 1q-1.86 0-3.15-.96-1.28-.97-2.07-2.26m128.34-6.79-4.64 6.44q-.79 1-1.54 1.57t-2.18.57q-1.36 0-2.65-.82-1.28-.82-3.07-1.86t-4.26-1.86q-2.46-.82-6.11-.82-4.65 0-8.15 1.68t-5.83 4.83q-2.32 3.14-3.47 7.61-1.14 4.47-1.14 10.12 0 5.86 1.25 10.44 1.25 4.57 3.61 7.68t5.72 4.72 7.58 1.61 6.83-1.04q2.61-1.03 4.4-2.28 1.78-1.26 3.11-2.29 1.32-1.04 2.96-1.04 2.15 0 3.22 1.65l5.08 6.43q-2.93 3.43-6.36 5.76-3.44 2.32-7.12 3.71-3.68 1.4-7.58 1.97-3.89.57-7.76.57-6.79 0-12.79-2.54-6.01-2.53-10.51-7.4-4.51-4.86-7.12-11.9t-2.61-16.05q0-8.08 2.33-14.98 2.32-6.9 6.82-11.94 4.51-5.04 11.16-7.9t15.3-2.86q8.22 0 14.41 2.64 6.18 2.65 11.11 7.58m11.73-41.97h17.66v60.85h3.29q1.79 0 2.82-.47 1.04-.46 2.11-1.89l18.24-22.52q1.14-1.51 2.53-2.29 1.4-.79 3.61-.79h16.16l-22.81 27.24q-2.43 3.22-5.29 4.94 1.51 1.07 2.69 2.5 1.17 1.43 2.25 3.07l24.45 35.61h-15.94q-2.08 0-3.58-.68t-2.5-2.47l-18.73-27.81q-1.01-1.64-2.08-2.14-1.07-.51-3.22-.51h-4v33.61h-17.66zm103.25 67.78q3.28 0 5.72-.89 2.43-.89 4.04-2.47 1.6-1.57 2.43-3.79.82-2.21.82-4.86 0-5.43-3.25-8.61-3.26-3.19-9.76-3.19-6.51 0-9.76 3.19-3.26 3.18-3.26 8.61 0 2.57.83 4.79.82 2.22 2.43 3.83 1.6 1.61 4.07 2.5t5.69.89m19.94 41.76q0-2.15-1.28-3.5-1.29-1.36-3.51-2.11-2.21-.75-5.18-1.11t-6.29-.54q-3.33-.18-6.87-.32t-6.9-.57q-2.93 1.64-4.75 3.86t-1.82 5.15q0 1.93.96 3.61.97 1.68 3.08 2.89 2.11 1.22 5.47 1.9t8.22.68q4.93 0 8.51-.75 3.57-.75 5.9-2.08 2.32-1.32 3.39-3.14 1.07-1.83 1.07-3.97m-3.5-74.15h21.09v6.58q0 3.15-3.79 3.86l-6.57 1.22q1.5 3.79 1.5 8.29 0 5.44-2.18 9.83-2.18 4.4-6.05 7.47-3.86 3.08-9.11 4.76-5.26 1.68-11.33 1.68-2.15 0-4.15-.21-2-.22-3.93-.58-3.44 2.08-3.44 4.65 0 2.22 2.04 3.25 2.04 1.04 5.4 1.47t7.65.54q4.29.1 8.8.46 4.5.36 8.79 1.25 4.29.9 7.65 2.83t5.4 5.25q2.04 3.33 2.04 8.55 0 4.86-2.4 9.43-2.39 4.58-6.93 8.16-4.54 3.57-11.16 5.75-6.61 2.18-15.05 2.18-8.29 0-14.44-1.61t-10.23-4.29q-4.07-2.68-6.07-6.18-2.01-3.51-2.01-7.29 0-5.15 3.11-8.62t8.55-5.54q-2.93-1.5-4.65-4.01-1.72-2.5-1.72-6.57 0-1.65.61-3.4t1.79-3.47q1.18-1.71 2.97-3.25 1.78-1.54 4.22-2.75-5.58-3.01-8.76-8.01-3.18-5.01-3.18-11.73 0-5.43 2.18-9.83t6.07-7.51q3.9-3.11 9.23-4.75 5.32-1.65 11.62-1.65 4.71 0 8.86.97 4.15.96 7.58 2.82m47.83 1.93 1.08 8.3q3.43-6.58 8.15-10.33 4.72-3.76 11.15-3.76 5.08 0 8.15 2.22l-1.14 13.23q-.36 1.28-1.04 1.82t-1.82.54q-1.07 0-3.18-.36t-4.11-.36q-2.94 0-5.22.86-2.29.86-4.11 2.47-1.83 1.6-3.22 3.89-1.4 2.29-2.61 5.22v45.19h-17.66v-73.36h10.36q2.72 0 3.79.97 1.08.96 1.43 3.46m70.22-5.57q8.15 0 14.83 2.64 6.69 2.65 11.44 7.51 4.76 4.86 7.33 11.87 2.58 7.01 2.58 15.66 0 8.72-2.58 15.73-2.57 7-7.33 11.94-4.75 4.93-11.44 7.58-6.68 2.64-14.83 2.64-8.23 0-14.95-2.64-6.72-2.65-11.47-7.58-4.76-4.94-7.37-11.94-2.61-7.01-2.61-15.73 0-8.65 2.61-15.66t7.37-11.87q4.75-4.86 11.47-7.51 6.72-2.64 14.95-2.64m0 61.99q9.15 0 13.55-6.15 4.39-6.15 4.39-18.02t-4.39-18.09q-4.4-6.22-13.55-6.22-9.3 0-13.77 6.26-4.47 6.25-4.47 18.05t4.47 17.98q4.47 6.19 13.77 6.19m95.24-60.85h17.66v73.36h-10.8q-3.5 0-4.43-3.22l-1.22-5.86q-4.5 4.58-9.94 7.4-5.43 2.82-12.8 2.82-6 0-10.61-2.03-4.62-2.04-7.76-5.76-3.15-3.72-4.76-8.83t-1.61-11.26v-46.62h17.67v46.62q0 6.72 3.11 10.4t9.33 3.68q4.57 0 8.58-2.03 4-2.04 7.58-5.62zm50.4 3.22 1.22 5.79q2.21-2.22 4.68-4.11 2.47-1.9 5.22-3.22t5.9-2.07 6.86-.75q6.01 0 10.66 2.03 4.64 2.04 7.76 5.72 3.11 3.69 4.71 8.8 1.61 5.11 1.61 11.26v46.69h-17.66v-46.69q0-6.72-3.07-10.4-3.08-3.69-9.37-3.69-4.57 0-8.58 2.08-4 2.07-7.58 5.65v53.05h-17.66v-73.36h10.8q3.43 0 4.5 3.22m111.4 48.4v-32.89q-3-3.64-6.54-5.14-3.54-1.51-7.62-1.51-4 0-7.22 1.51-3.22 1.5-5.5 4.54-2.29 3.03-3.51 7.72-1.21 4.68-1.21 11.04 0 6.44 1.03 10.91 1.04 4.47 2.97 7.29 1.93 2.83 4.72 4.08t6.22 1.25q5.51 0 9.37-2.29t7.29-6.51m0-84.51h17.66v106.25h-10.8q-3.5 0-4.43-3.22l-1.5-7.08q-4.43 5.08-10.19 8.23-5.76 3.14-13.41 3.14-6 0-11.01-2.5-5-2.5-8.61-7.26-3.61-4.75-5.58-11.76t-1.97-16.02q0-8.15 2.22-15.15 2.22-7.01 6.36-12.16 4.15-5.15 9.94-8.04 5.79-2.9 13.02-2.9 6.14 0 10.51 1.93 4.36 1.93 7.79 5.22zm91.88 90.38h41.32v15.87h-60.56V476.83h19.24zm91.02-3.08V548.9q-7.65.36-12.87 1.33-5.22.96-8.37 2.46-3.14 1.5-4.5 3.51-1.36 2-1.36 4.36 0 4.64 2.75 6.65 2.75 2 7.19 2 5.43 0 9.4-1.97 3.97-1.96 7.76-5.97m-37.33-38.54-3.14-5.64q12.65-11.59 30.46-11.59 6.43 0 11.51 2.11t8.58 5.86q3.5 3.76 5.33 8.98 1.82 5.22 1.82 11.44v46.33h-8.01q-2.5 0-3.86-.75t-2.15-3.04l-1.57-5.29q-2.79 2.5-5.43 4.4-2.65 1.89-5.51 3.18t-6.11 1.96q-3.25.68-7.19.68-4.64 0-8.58-1.25-3.93-1.25-6.79-3.75t-4.43-6.22q-1.58-3.72-1.58-8.65 0-2.79.93-5.54.93-2.76 3.04-5.26t5.47-4.72 8.26-3.86 11.4-2.68q6.51-1.04 14.88-1.25v-4.29q0-7.37-3.15-10.91-3.14-3.54-9.08-3.54-4.29 0-7.11 1.01-2.83 1-4.97 2.25-2.15 1.25-3.9 2.25t-3.9 1q-1.86 0-3.14-.96-1.29-.97-2.08-2.26m123.63-15.87h14.15l-39.96 93.52q-.79 1.86-2.04 2.83-1.25.96-3.83.96h-13.15l13.72-29.46-29.67-67.85h15.52q2.07 0 3.25 1t1.75 2.29l15.59 38.04q.79 1.93 1.32 3.86.54 1.93 1.04 3.93.64-2 1.29-3.97.64-1.96 1.43-3.89l14.73-37.97q.57-1.43 1.89-2.36t2.97-.93m36.89 28.24h33.32q0-3.43-.96-6.47-.97-3.04-2.9-5.32-1.93-2.29-4.9-3.61-2.97-1.33-6.9-1.33-7.65 0-12.05 4.36-4.39 4.37-5.61 12.37m45.05 10.66h-45.41q.43 5.65 2.01 9.76 1.57 4.11 4.14 6.79 2.58 2.68 6.12 4 3.54 1.33 7.83 1.33t7.4-1.01q3.11-1 5.43-2.21 2.32-1.22 4.08-2.22 1.75-1 3.39-1 2.22 0 3.29 1.65l5.08 6.43q-2.93 3.43-6.58 5.76-3.65 2.32-7.62 3.71-3.96 1.4-8.08 1.97-4.11.57-7.97.57-7.65 0-14.23-2.54-6.57-2.53-11.44-7.5-4.86-4.97-7.65-12.3t-2.79-16.98q0-7.51 2.44-14.12 2.43-6.62 6.97-11.52 4.54-4.89 11.08-7.75t14.76-2.86q6.94 0 12.8 2.21 5.87 2.22 10.08 6.47 4.22 4.26 6.62 10.44 2.39 6.19 2.39 14.12 0 4.01-.85 5.4-.86 1.4-3.29 1.4m32.96-34.47 1.07 8.3q3.43-6.58 8.15-10.33 4.72-3.76 11.16-3.76 5.07 0 8.15 2.22l-1.15 13.23q-.36 1.28-1.03 1.82-.68.54-1.83.54-1.07 0-3.18-.36t-4.11-.36q-2.93 0-5.22.86t-4.11 2.47q-1.82 1.6-3.22 3.89-1.39 2.29-2.61 5.22v45.19h-17.66v-73.36h10.37q2.72 0 3.79.97 1.07.96 1.43 3.46"/></svg>